# Blender v2.79 (sub 0) OBJ File: 'Person.blend'
# www.blender.org
mtllib Person.mtl
o Body_Cube.001
v 0.120215 2.337858 -0.488403
v 0.120215 2.337858 0.488403
v -0.856592 2.337858 0.488403
v -0.856591 2.337858 -0.488403
v 0.120215 1.269317 -0.488403
v 0.120215 1.269317 0.488403
v -0.856591 1.269317 -0.488403
v -0.856592 1.269317 0.488403
v -0.856592 1.269317 0.788403
v 0.120215 2.337858 -0.788403
v -0.856591 2.337858 -0.788403
v 0.120215 1.269317 -0.788403
v -0.856591 1.269317 -0.788403
v 0.120215 1.269317 0.000000
v -0.856591 1.269317 -0.000000
v 0.120215 -0.030683 0.000000
v 0.120215 -0.030683 0.488403
v 0.120215 -0.030683 -0.488403
v -0.856591 -0.030683 -0.488403
v -0.856592 -0.030683 0.488403
v -0.856591 -0.030683 -0.000000
v -0.856592 0.749317 0.488403
v 0.120215 0.749317 0.488403
v 0.120215 0.749317 0.000000
v -0.856591 0.749317 -0.000000
v -0.856591 0.749317 -0.488403
v 0.120215 0.749317 -0.488403
v 0.120215 2.337858 0.788403
v -0.856592 2.337858 0.788403
v 0.120215 1.269317 0.788403
v -0.856592 2.017296 0.488403
v 0.120215 2.017296 0.488403
v 0.120215 2.017296 0.788403
v -0.856592 2.017296 0.788403
v -0.856591 2.017296 -0.488403
v 0.120215 2.017296 -0.488403
v -0.856591 2.017296 -0.788403
v 0.120215 2.017296 -0.788403
vn 1.0000 -0.0000 0.0000
vn -1.0000 -0.0000 -0.0000
vn 0.0000 1.0000 0.0000
vn 0.0000 -1.0000 0.0000
vn 0.0000 0.0000 -1.0000
vn -0.0000 0.0000 1.0000
usemtl Material
s off
f 2//1 32//1 6//1 14//1 5//1 36//1 1//1
f 4//2 35//2 7//2 15//2 8//2 31//2 3//2
f 24//1 23//1 17//1 16//1
f 2//3 3//3 29//3 28//3
f 35//2 4//2 11//2 37//2
f 8//4 6//4 30//4 9//4
f 31//2 8//2 9//2 34//2
f 32//1 2//1 28//1 33//1
f 37//5 38//5 12//5 13//5
f 4//3 1//3 10//3 11//3
f 36//1 5//1 12//1 38//1
f 5//4 7//4 13//4 12//4
f 23//6 22//6 20//6 17//6
f 16//4 17//4 20//4 21//4
f 18//4 16//4 21//4 19//4
f 22//2 25//2 21//2 20//2
f 25//2 26//2 19//2 21//2
f 26//5 27//5 18//5 19//5
f 27//1 24//1 16//1 18//1
f 5//1 14//1 24//1 27//1
f 7//5 5//5 27//5 26//5
f 15//2 7//2 26//2 25//2
f 8//2 15//2 25//2 22//2
f 6//6 8//6 22//6 23//6
f 14//1 6//1 23//1 24//1
f 33//6 34//6 9//6 30//6
f 28//6 29//6 34//6 33//6
f 6//1 32//1 33//1 30//1
f 3//2 31//2 34//2 29//2
f 1//1 36//1 38//1 10//1
f 11//5 10//5 38//5 37//5
f 7//2 35//2 37//2 13//2
f 4//3 3//3 2//3 1//3
o Head_Cube.002
v 0.120215 2.337858 -0.488403
v 0.120215 2.337858 0.488403
v -0.856592 2.337858 0.488403
v -0.856591 2.337858 -0.488403
v 0.120215 3.314665 -0.488403
v 0.120214 3.314665 0.488403
v -0.856592 3.314665 0.488403
v -0.856591 3.314665 -0.488403
vt 0.027240 0.972947
vt 0.027240 0.702998
vt 0.327183 0.702998
vt 0.327183 0.972947
vt -0.010288 0.012963
vt -0.010288 0.012963
vt -0.010288 0.012963
vt -0.010288 0.012963
vt -0.010288 0.012963
vt -0.010288 0.012963
vt -0.010288 0.012963
vt -0.010288 0.012963
vn 1.0000 0.0000 0.0000
vn 0.0000 1.0000 -0.0000
vn -0.0000 -0.0000 1.0000
vn 0.0000 0.0000 -1.0000
vn -1.0000 -0.0000 -0.0000
vn 0.0000 -1.0000 0.0000
usemtl Material_FaceEmotions.jpg
s off
f 44/1/7 40/2/7 39/3/7 43/4/7
usemtl Material
f 46/5/8 45/6/8 44/7/8 43/8/8
f 40/9/9 44/7/9 45/6/9 41/10/9
f 43/8/10 39/11/10 42/12/10 46/5/10
f 46/5/11 42/12/11 41/10/11 45/6/11
f 42/12/12 39/11/12 40/9/12 41/10/12
